<?xml version="1.0" encoding="UTF-8"?>
<svg version="1.1" xmlns="http://www.w3.org/2000/svg" width="1024" height="576">
<path d="M0 0 C4.26499591 3.39176329 8.14745746 7.15292982 12 11 C12.7425 11.73089844 13.485 12.46179688 14.25 13.21484375 C30.59754791 30.36061178 35.71192038 52.95381203 35.3046875 75.94140625 C34.44179764 98.79372485 23.308206 118.63647944 7.04296875 134.36328125 C-6.15737076 146.18002802 -23.62014555 153.82954978 -41.19433594 155.53393555 C-42.09440369 155.6218486 -42.99447144 155.70976166 -43.92181396 155.80033875 C-44.60761536 155.86622696 -45.29341675 155.93211517 -46 156 C-46.23208294 147.75942438 -46.4095607 139.52022095 -46.51812172 131.27718163 C-46.57023819 127.44907312 -46.64086033 123.62320527 -46.75439453 119.79638672 C-46.86335801 116.10033977 -46.92289792 112.40644131 -46.94877243 108.7089119 C-46.96719912 107.30123678 -47.00319016 105.89367483 -47.05730057 104.4869194 C-47.21733498 100.15248385 -47.22555798 96.17778796 -46 92 C-43.61470317 89.70171744 -41.4830664 88.47148523 -38.45223999 87.15982056 C-34.54017545 85.30955595 -33.15235384 82.67983075 -31 79 C-28.95371213 72.8611364 -28.89428035 65.49983235 -31.625 59.5625 C-35.14431562 53.65201175 -40.06158536 50.34076465 -46.578125 48.44921875 C-53.06286961 47.24640322 -58.28029025 48.20227097 -63.875 51.6875 C-69.88677549 56.17247536 -72.63559625 60.99585632 -73.875 68.34375 C-74.16026424 74.40561505 -72.09969505 79.28576948 -68.875 84.3125 C-65.31983737 87.8532441 -65.31983737 87.8532441 -57 92 C-57 113.12 -57 134.24 -57 156 C-81.77505677 153.52249432 -103.74809965 143.47069975 -120 124 C-135.47157228 103.5884234 -140.59365069 80.80251235 -137.71875 55.52734375 C-134.58381476 34.75839781 -121.98268487 14.35657948 -105.31738281 1.72460938 C-73.44701648 -20.89996594 -32.47607603 -22.37988659 0 0 Z " fill="#009DE2" transform="translate(147,218)"/>
<path d="M0 0 C21.12 0 42.24 0 64 0 C64 87.12 64 174.24 64 264 C42.88 264 21.76 264 0 264 C0 176.88 0 89.76 0 0 Z " fill="#009DE2" transform="translate(951,156)"/>
<path d="M0 0 C234.3 0 468.6 0 710 0 C710 1.65 710 3.3 710 5 C475.7 5 241.4 5 0 5 C0 3.35 0 1.7 0 0 Z " fill="#1B1E1E" transform="translate(209,296)"/>
<path d="M0 0 C4.14425088 -0.07465394 8.28813624 -0.12883721 12.43286133 -0.16479492 C13.84015734 -0.17979877 15.24740724 -0.20020863 16.65454102 -0.22631836 C18.68777907 -0.26307665 20.72039432 -0.27980984 22.75390625 -0.29296875 C23.97408447 -0.3086792 25.1942627 -0.32438965 26.45141602 -0.34057617 C31.73970984 0.16696906 35.55046158 1.84695808 39.75 5.1875 C43.00111705 9.25139631 45.15977429 13.00922509 44.875 18.33984375 C43.98616866 23.1093762 42.56073726 26.55053578 39 30 C38.34 30 37.68 30 37 30 C37.42152344 30.54269531 37.84304688 31.08539063 38.27734375 31.64453125 C38.82519531 32.35996094 39.37304688 33.07539063 39.9375 33.8125 C40.48277344 34.52019531 41.02804687 35.22789062 41.58984375 35.95703125 C44.59113081 40.30515626 44.59307404 44.90944779 44 50 C42.28816913 55.30295434 39.76165056 58.98041672 35 62 C30.81464917 64.06696573 27.3723632 64.23351739 22.73046875 64.1953125 C22.04946609 64.1924826 21.36846344 64.18965271 20.66682434 64.18673706 C18.50686545 64.17560525 16.34733206 64.15051457 14.1875 64.125 C12.71680289 64.11496111 11.24609924 64.10583685 9.77539062 64.09765625 C6.18345714 64.07568913 2.59177015 64.0412082 -1 64 C-1.20638953 21.1979874 -1.20638953 21.1979874 0 0 Z M18 15 C18 17.97 18 20.94 18 24 C22.18966713 24.34685528 22.18966713 24.34685528 25.9375 22.75 C27.21002659 21.04476921 27.21002659 21.04476921 26.8125 18.9375 C26.06529664 16.81287474 26.06529664 16.81287474 24 15 C20.91652174 14.83318891 20.91652174 14.83318891 18 15 Z M18 38 C18 41.3 18 44.6 18 48 C21.41642759 48.25015873 21.41642759 48.25015873 25 48 C27.28138945 45.24301816 27.28138945 45.24301816 26.8125 42.4375 C26.16627558 39.66744883 26.16627558 39.66744883 23 38 C21.35 38 19.7 38 18 38 Z " fill="#1B1C1B" transform="translate(421,213)"/>
<path d="M0 0 C5.28 0 10.56 0 16 0 C16 21.12 16 42.24 16 64 C-15 64 -15 64 -25 59 C-30.62330894 52.67377744 -33.56472865 47.01104554 -33.3046875 38.4296875 C-32.34222003 30.75462639 -29.2045383 25.16754488 -23.140625 20.40625 C-17.20793054 16.50885948 -12.02606459 15.53159569 -5 16 C-3.68 16.33 -2.36 16.66 -1 17 C-0.67 11.39 -0.34 5.78 0 0 Z M-14.375 34.625 C-16.4753727 37.69477548 -16.53293835 39.34556561 -16 43 C-15.00965774 45.40383995 -15.00965774 45.40383995 -13 47 C-9.87894596 47.92967567 -7.88036529 48.2690005 -4.75 47.3125 C-2.55342962 45.66507222 -1.80529388 44.63550724 -1 42 C-1.13996254 38.57091775 -1.36887891 36.70124565 -3.6875 34.125 C-7.70223754 32.17188444 -10.65538484 32.08000016 -14.375 34.625 Z " fill="#1B1C1B" transform="translate(843,214)"/>
<path d="M0 0 C4.95 0 9.9 0 15 0 C16.9230889 1.9230889 16.25321838 5.47070485 16.31640625 8.09765625 C16.33718735 8.80651474 16.35796844 9.51537323 16.37937927 10.24571228 C16.44494598 12.51787305 16.5037923 14.79015264 16.5625 17.0625 C16.60567849 18.59962183 16.64929255 20.1367315 16.69335938 21.67382812 C16.80145734 25.44909856 16.90047637 29.22445466 17 33 C19.64 28.05 22.28 23.1 25 18 C30.61 18 36.22 18 42 18 C39.77702128 24.66893617 39.77702128 24.66893617 37.5546875 27.3046875 C33.40883657 32.70330817 33.40883657 32.70330817 31 39 C31.75262166 44.31561772 34.8310481 48.79792111 37.77490234 53.17578125 C43 60.95615783 43 60.95615783 43 65 C37.72 65 32.44 65 27 65 C23.7 59.06 20.4 53.12 17 47 C16.67 52.94 16.34 58.88 16 65 C10.72 65 5.44 65 0 65 C0 43.55 0 22.1 0 0 Z " fill="#1B1C1B" transform="translate(555,213)"/>
<path d="M0 0 C1.21042969 0.00644531 2.42085937 0.01289063 3.66796875 0.01953125 C6.8125 0.1875 6.8125 0.1875 9.8125 1.1875 C9.8125 7.1275 9.8125 13.0675 9.8125 19.1875 C3.8725 18.1975 3.8725 18.1975 -2.1875 17.1875 C-1.30544805 23.18301757 -1.30544805 23.18301757 2.125 27.25 C3.06666016 28.26320312 3.06666016 28.26320312 4.02734375 29.296875 C4.61644531 29.92078125 5.20554688 30.5446875 5.8125 31.1875 C10.59565365 36.8517609 11.16922132 40.80663818 11.08984375 48.109375 C10.55360647 54.06085353 8.20695417 57.65700152 4.25 62 C-2.91152595 67.29486254 -11.33286099 67.52913198 -19.8515625 66.609375 C-22.1875 66.1875 -22.1875 66.1875 -23.1875 65.1875 C-23.27381874 63.84482587 -23.29456473 62.49775678 -23.28515625 61.15234375 C-23.28193359 60.34345703 -23.27871094 59.53457031 -23.27539062 58.70117188 C-23.26701172 57.85103516 -23.25863281 57.00089844 -23.25 56.125 C-23.24548828 55.27099609 -23.24097656 54.41699219 -23.23632812 53.53710938 C-23.22450373 51.42054337 -23.20656769 49.30401315 -23.1875 47.1875 C-21.77083333 47.375 -20.35416667 47.5625 -18.9375 47.75 C-15.70833795 48.17738909 -13.30930401 48.15411363 -10.1875 47.1875 C-10.56928588 41.71523575 -12.24850425 39.85792786 -16.1875 36.1875 C-20.91522085 30.59774457 -23.57093528 25.18692042 -23.0625 17.6875 C-22.22081426 11.94250547 -20.01392455 7.96586075 -15.8125 3.875 C-10.68030345 0.57573079 -6.03445365 -0.07114576 0 0 Z " fill="#1B1C1B" transform="translate(233.1875,210.8125)"/>
<path d="M0 0 C5.76229768 4.87745047 9.34056681 10.71524665 10.27734375 18.22265625 C10.58369008 25.36665259 8.70882834 31.11982474 4.3125 36.75 C-1.13014086 42.53694418 -6.06407762 44.23716496 -14 44.5 C-22.46102995 44.21104273 -27.11894539 42.26950001 -32.875 36.125 C-38.33344741 29.33613375 -38.90779567 22.52879636 -38 14 C-35.92550329 7.17098111 -31.5149476 2.38607976 -25.4375 -1.25 C-16.76457269 -5.66530845 -8.36973359 -4.85280971 0 0 Z M-21 17 C-22.16210219 19.39351495 -22.16210219 19.39351495 -22 22 C-20.07018508 25.39647426 -18.721365 26.72373255 -15.0625 28.125 C-11.82585317 28.27372362 -11.82585317 28.27372362 -9.125 25.9375 C-6.80499009 23.17384476 -6.80499009 23.17384476 -6.4375 19.9375 C-7.13536986 16.29306849 -7.94376723 15.09110663 -11 13 C-15.86580962 12.18903173 -18.09319897 13.01660599 -21 17 Z " fill="#1B1C1B" transform="translate(670,234)"/>
<path d="M0 0 C5.61 0 11.22 0 17 0 C17.33 0.66 17.66 1.32 18 2 C18.57105469 1.67773438 19.14210938 1.35546875 19.73046875 1.0234375 C23.97554445 -0.89086514 28.65545824 -0.83251483 33.03515625 0.72265625 C37.03880863 2.82223616 39.14394658 4.94298712 41 9 C41.25239537 11.9377374 41.35087237 14.65195767 41.29296875 17.58203125 C41.28872391 18.39621017 41.28447906 19.2103891 41.28010559 20.04924011 C41.26337753 22.63733668 41.22573712 25.22464071 41.1875 27.8125 C41.17244553 29.57225434 41.15875846 31.33202095 41.14648438 33.09179688 C41.11605098 37.39507864 41.05732129 41.6966573 41 46 C35.72 46 30.44 46 25 46 C24.67 36.43 24.34 26.86 24 17 C22.35 16.67 20.7 16.34 19 16 C17.14034925 17.85965075 17.75912451 20.94889119 17.68359375 23.44140625 C17.64169922 24.74658203 17.59980469 26.05175781 17.55664062 27.39648438 C17.51682392 28.7851533 17.47711175 30.17382522 17.4375 31.5625 C17.39432011 32.95509183 17.350706 34.34767028 17.30664062 35.74023438 C17.20014194 39.16002549 17.09952944 42.57999896 17 46 C11.39 46 5.78 46 0 46 C0 30.82 0 15.64 0 0 Z " fill="#1B1C1B" transform="translate(510,231)"/>
<path d="M0 0 C5.28 0 10.56 0 16 0 C16.33 0.99 16.66 1.98 17 3 C17.66 2.505 18.32 2.01 19 1.5 C22.74809414 -0.37404707 25.92266891 -0.58476458 30 0 C34.69994029 1.71728588 37.20959499 3.86606666 40 8 C41.23180134 11.69540402 41.12412112 15.10303378 41.09765625 18.94921875 C41.0962413 19.72183548 41.09482635 20.49445221 41.09336853 21.29048157 C41.08777466 23.75619389 41.07522333 26.22181515 41.0625 28.6875 C41.05748421 30.36002473 41.05292144 32.03255088 41.04882812 33.70507812 C41.03865847 37.80344866 41.01908194 41.90162248 41 46 C35.72 46 30.44 46 25 46 C24.95101562 44.00195312 24.90203125 42.00390625 24.8515625 39.9453125 C24.79594235 38.01251243 24.74025454 36.07971363 24.68261719 34.14697266 C24.62545964 32.14113029 24.57831404 30.13501082 24.53125 28.12890625 C24.49257813 26.87207031 24.45390625 25.61523438 24.4140625 24.3203125 C24.3826416 23.15773926 24.3512207 21.99516602 24.31884766 20.79736328 C24.27842131 17.86343518 24.27842131 17.86343518 22 16 C19.91666667 16.16666667 19.91666667 16.16666667 18 17 C16.63160637 19.73678725 16.78365182 22.04264424 16.68359375 25.1015625 C16.64169922 26.31328125 16.59980469 27.525 16.55664062 28.7734375 C16.51732422 30.04445313 16.47800781 31.31546875 16.4375 32.625 C16.39431641 33.90375 16.35113281 35.1825 16.30664062 36.5 C16.2003019 39.66653082 16.0996233 42.83325079 16 46 C10.72 46 5.44 46 0 46 C0 30.82 0 15.64 0 0 Z " fill="#1B1C1B" transform="translate(767,232)"/>
<path d="M0 0 C4.12807766 2.69222456 6.54641308 5.72894128 9 10 C9 10.99 9 11.98 9 13 C7.02832876 14.57793811 5.11154484 15.94732941 3 17.3125 C1.80776631 18.1081365 0.61635924 18.90501306 -0.57421875 19.703125 C-1.45086182 20.28610352 -1.45086182 20.28610352 -2.34521484 20.88085938 C-5.65997341 23.12264947 -8.83096652 25.55859958 -12 28 C-5.24520726 28.7342166 -0.81475715 26.27591952 5 23 C6.50156874 26.00313748 6.09281204 28.79067522 6.0625 32.125 C6.05347656 33.40632813 6.04445313 34.68765625 6.03515625 36.0078125 C6.02355469 36.99523437 6.01195312 37.98265625 6 39 C-2.10656415 43.30348467 -10.03743178 45.23224497 -19.125 43.0625 C-26.07712121 40.63424714 -31.15868065 35.90147291 -35.0625 29.75 C-37.17154702 21.31381193 -36.96686831 13.85273963 -32.62109375 6.1953125 C-24.14210926 -5.28707131 -12.08069684 -5.95816681 0 0 Z M-17.8125 10.5625 C-20.37804992 13.42125562 -20.74233354 15.22089199 -21 19 C-19.55962331 18.06692579 -18.12281015 17.12834923 -16.6875 16.1875 C-15.88699219 15.66542969 -15.08648437 15.14335937 -14.26171875 14.60546875 C-12.2762598 13.19610151 -10.6508148 11.77903343 -9 10 C-12.73869631 8.95664289 -14.35430823 8.64128235 -17.8125 10.5625 Z " fill="#1B1C1B" transform="translate(374,234)"/>
<path d="M0 0 C1.49176758 -0.0309375 1.49176758 -0.0309375 3.01367188 -0.0625 C8.47282506 -0.09155737 12.74581386 -0.08908234 17.3125 3.25 C21.49814442 8.27009235 21.86411173 11.90835633 21.703125 18.1484375 C21.69746521 18.98339752 21.69180542 19.81835754 21.68597412 20.67861938 C21.66370223 23.32801266 21.61352523 25.97602016 21.5625 28.625 C21.54242302 30.42836579 21.52417435 32.23175292 21.5078125 34.03515625 C21.46386786 38.44063269 21.39490601 42.84508194 21.3125 47.25 C16.6925 47.25 12.0725 47.25 7.3125 47.25 C7.3125 46.59 7.3125 45.93 7.3125 45.25 C6.075 45.745 6.075 45.745 4.8125 46.25 C-0.67717227 47.81847779 -4.71752186 48.19710487 -9.9375 45.6875 C-14.06044892 42.033068 -16.3402483 38.969488 -17.03515625 33.52734375 C-17.19432412 28.38552939 -17.22405725 24.27435825 -13.6875 20.25 C-10.75937847 17.38022872 -9.26921384 16.31399492 -5.13671875 15.859375 C-3.89535156 15.90578125 -2.65398437 15.9521875 -1.375 16 C-0.12074219 16.03609375 1.13351562 16.0721875 2.42578125 16.109375 C3.85470703 16.17898437 3.85470703 16.17898437 5.3125 16.25 C4.9825 15.26 4.6525 14.27 4.3125 13.25 C-0.9675 12.92 -6.2475 12.59 -11.6875 12.25 C-11.78515625 3.75390625 -11.78515625 3.75390625 -11.6875 1.25 C-9.28733668 -1.15016332 -3.22046673 0.01637872 0 0 Z M1.3125 25.25 C0.3225 25.91 -0.6675 26.57 -1.6875 27.25 C-1.9377157 30.33365871 -1.9377157 30.33365871 -1.6875 33.25 C0.57851865 34.54042763 0.57851865 34.54042763 3.3125 35.25 C5.63761472 33.98647948 5.63761472 33.98647948 7.3125 32.25 C7.20636164 29.79775306 7.20636164 29.79775306 6.3125 27.25 C4.00714365 25.67776606 4.00714365 25.67776606 1.3125 25.25 Z " fill="#1B1C1B" transform="translate(288.6875,229.75)"/>
<path d="M0 0 C3.87575108 -0.1081605 7.74846959 -0.1874032 11.625 -0.25 C13.26662109 -0.30027344 13.26662109 -0.30027344 14.94140625 -0.3515625 C21.24605852 -0.42798253 25.32194264 -0.44493158 30 4 C32.73602453 7.84738733 32.25287096 12.18346629 32.1953125 16.703125 C32.1924826 17.54091492 32.18965271 18.37870483 32.18673706 19.24188232 C32.17556349 21.91140163 32.15046421 24.5805825 32.125 27.25 C32.11496654 29.06249515 32.10584133 30.87499556 32.09765625 32.6875 C32.0756334 37.12512993 32.04112304 41.56250763 32 46 C27.38 46 22.76 46 18 46 C18 45.34 18 44.68 18 44 C17.01 44.495 17.01 44.495 16 45 C10.90896002 46.69701333 6.73328505 46.59998329 1.75 44.875 C-2.01054124 42.31099461 -4.06423539 39.33941152 -5.75 35.125 C-6.49269609 28.81208326 -6.54910377 24.45040937 -3 19 C0.93415153 15.43467517 4.36291858 14.86115291 9.5625 14.875 C10.53316406 14.87242187 11.50382812 14.86984375 12.50390625 14.8671875 C15 15 15 15 17 16 C16.67 15.01 16.34 14.02 16 13 C10.39 12.67 4.78 12.34 -1 12 C-0.67 8.04 -0.34 4.08 0 0 Z M9 27 C9.32198966 30.09926819 9.32198966 30.09926819 10 33 C12.34533951 33.76956136 12.34533951 33.76956136 15 34 C17 33 17 33 18 31 C17.75794651 27.68181015 17.75794651 27.68181015 16 25 C12.038832 24.60909667 12.038832 24.60909667 9 27 Z " fill="#1B1C1B" transform="translate(473,231)"/>
<path d="M0 0 C4.08350919 -0.05388795 8.16630899 -0.09362147 12.25 -0.125 C13.98830078 -0.15013672 13.98830078 -0.15013672 15.76171875 -0.17578125 C16.87675781 -0.18222656 17.99179687 -0.18867188 19.140625 -0.1953125 C20.68024902 -0.21102295 20.68024902 -0.21102295 22.25097656 -0.22705078 C25.01984288 0.00163889 26.64418792 0.5756701 29 2 C29 2.66 29 3.32 29 4 C29.66 4 30.32 4 31 4 C33.25310106 8.47891543 33.25987948 12.68114535 33.1953125 17.58203125 C33.1924826 18.39621017 33.18965271 19.2103891 33.18673706 20.04924011 C33.17558584 22.637146 33.15049083 25.22469958 33.125 27.8125 C33.11496365 29.57226061 33.10583894 31.33202667 33.09765625 33.09179688 C33.0756631 37.39466598 33.04116836 41.69727336 33 46 C28.05 46 23.1 46 18 46 C18 45.34 18 44.68 18 44 C17.01 44.495 17.01 44.495 16 45 C12.25947303 46.24684232 8.87819709 46.60953982 5 46 C0.18224709 43.59112355 -2.5237304 40.76911183 -5 36 C-6.49357516 30.64711384 -6.14905662 26.17727275 -4 21 C-1.38921813 17.92061625 0.16273272 16.27908909 4 15 C5.83140741 14.90622311 7.66619987 14.87007043 9.5 14.875 C10.4590625 14.87242187 11.418125 14.86984375 12.40625 14.8671875 C15 15 15 15 18 16 C17.67 14.68 17.34 13.36 17 12 C11.39 11.67 5.78 11.34 0 11 C0 7.37 0 3.74 0 0 Z M10.75 25.9375 C9.88375 26.9584375 9.88375 26.9584375 9 28 C10.05474665 31.69460876 10.05474665 31.69460876 12.875 34.0625 C15.22616748 34.21665306 15.22616748 34.21665306 17.25 32.0625 C17.8275 31.381875 18.405 30.70125 19 30 C17.94525335 26.30539124 17.94525335 26.30539124 15.125 23.9375 C12.77383252 23.78334694 12.77383252 23.78334694 10.75 25.9375 Z " fill="#1B1C1B" transform="translate(887,232)"/>
<path d="M0 0 C0 4.95 0 9.9 0 15 C-0.99 15.33 -1.98 15.66 -3 16 C-2.01 16.66 -1.02 17.32 0 18 C0.29296875 21.2578125 0.29296875 21.2578125 0.1875 25.125 C0.16042969 26.40632813 0.13335938 27.68765625 0.10546875 29.0078125 C0.07066406 29.99523437 0.03585937 30.98265625 0 32 C-1.98 32 -3.96 32 -6 32 C-6 42.56 -6 53.12 -6 64 C-11.28 64 -16.56 64 -22 64 C-22 53.44 -22 42.88 -22 32 C-23.32 32 -24.64 32 -26 32 C-26 27.38 -26 22.76 -26 18 C-24.68 17.67 -23.36 17.34 -22 17 C-22.0825 15.80375 -22.165 14.6075 -22.25 13.375 C-22.22599051 8.85321242 -21.09167504 6.40876992 -18 3 C-12.07304348 -0.62874889 -6.85437984 -0.25386592 0 0 Z " fill="#1B1C1B" transform="translate(706,214)"/>
<path d="M0 0 C0 4.29 0 8.58 0 13 C1.98 13 3.96 13 6 13 C6 17.95 6 22.9 6 28 C4.02 28 2.04 28 0 28 C0.33 32.29 0.66 36.58 1 41 C2.98 41.66 4.96 42.32 7 43 C6.68806536 44.72926874 6.37542638 46.45841044 6.0625 48.1875 C5.80146484 49.63189453 5.80146484 49.63189453 5.53515625 51.10546875 C5.0476265 53.74239972 4.53328895 56.3719905 4 59 C-0.66728837 60.55576279 -5.12904982 60.54049672 -9.8125 59.1875 C-13.35260899 57.26572655 -14.71825194 55.84524417 -16 52 C-16.08266486 50.08093083 -16.10740663 48.15910526 -16.09765625 46.23828125 C-16.09443359 45.12001953 -16.09121094 44.00175781 -16.08789062 42.84960938 C-16.07951172 41.68236328 -16.07113281 40.51511719 -16.0625 39.3125 C-16.05798828 38.13365234 -16.05347656 36.95480469 -16.04882812 35.74023438 C-16.03703273 32.82677211 -16.0205727 29.91341137 -16 27 C-16.99 27 -17.98 27 -19 27 C-19 22.38 -19 17.76 -19 13 C-18.01 13 -17.02 13 -16 13 C-16 11.35 -16 9.7 -16 8 C-13.71125827 6.66141476 -11.41930344 5.32898986 -9.125 4 C-8.47402344 3.6184375 -7.82304687 3.236875 -7.15234375 2.84375 C-2.2265625 0 -2.2265625 0 0 0 Z " fill="#1B1C1B" transform="translate(264,217)"/>
<path d="M0 0 C0 4.29 0 8.58 0 13 C1.65 13 3.3 13 5 13 C5 17.95 5 22.9 5 28 C3.02 28 1.04 28 -1 28 C-0.85923685 29.9587043 -0.7122324 31.91696093 -0.5625 33.875 C-0.44068359 35.51082031 -0.44068359 35.51082031 -0.31640625 37.1796875 C-0.16998297 39.94728971 -0.16998297 39.94728971 1 42 C3.52733235 42.65555119 3.52733235 42.65555119 6 43 C5.52224079 48.54452138 4.86383815 53.73739815 3 59 C-0.70540216 60.85270108 -5.09059908 60.53759832 -9.01171875 59.43359375 C-12.44865411 58.05737854 -13.9124451 57.13133236 -16 54 C-16.22705078 51.1809082 -16.22705078 51.1809082 -16.1953125 47.80078125 C-16.18886719 46.59228516 -16.18242187 45.38378906 -16.17578125 44.13867188 C-16.15902344 42.87603516 -16.14226562 41.61339844 -16.125 40.3125 C-16.11597656 39.03826172 -16.10695313 37.76402344 -16.09765625 36.45117188 C-16.07405641 33.30059373 -16.04113194 30.15039017 -16 27 C-17.32 27 -18.64 27 -20 27 C-20 22.38 -20 17.76 -20 13 C-19.01 13 -18.02 13 -17 13 C-17 11.35 -17 9.7 -17 8 C-14.73354942 6.65869239 -12.46239903 5.32683766 -10.1875 4 C-9.54490234 3.6184375 -8.90230469 3.236875 -8.24023438 2.84375 C-3.33984375 0 -3.33984375 0 0 0 Z " fill="#1B1C1B" transform="translate(332,217)"/>
<path d="M0 0 C5.28 0 10.56 0 16 0 C16 20.79 16 41.58 16 63 C10.72 63 5.44 63 0 63 C0 42.21 0 21.42 0 0 Z " fill="#1C1C1B" transform="translate(744,214)"/>
<path d="M0 0 C5.28 0 10.56 0 16 0 C16 15.18 16 30.36 16 46 C10.72 46 5.44 46 0 46 C0 30.82 0 15.64 0 0 Z " fill="#1C1C1B" transform="translate(863,232)"/>
<path d="M0 0 C5.46228526 0.03601507 9.17622985 0.47345401 13.875 3.25 C15.36998913 6.23997825 14.99077446 8.95042775 14.875 12.25 C14.545 13.24 14.215 14.23 13.875 15.25 C14.349375 15.848125 14.82375 16.44625 15.3125 17.0625 C17.42682586 20.0225562 17.38519876 21.67860868 16.875 25.25 C15.07506226 27.94990662 13.791227 29.7918865 10.875 31.25 C9.49951844 31.33308638 8.12014204 31.35736016 6.7421875 31.34765625 C5.93652344 31.34443359 5.13085938 31.34121094 4.30078125 31.33789062 C3.45902344 31.32951172 2.61726563 31.32113281 1.75 31.3125 C0.90050781 31.30798828 0.05101562 31.30347656 -0.82421875 31.29882812 C-2.92450909 31.28702874 -5.0247633 31.26909306 -7.125 31.25 C-7.14965622 26.99585377 -7.16783899 22.74174502 -7.17993164 18.48754883 C-7.18497101 17.03929927 -7.19180253 15.59105483 -7.20043945 14.14282227 C-7.21252247 12.06525412 -7.21823211 9.98775303 -7.22265625 7.91015625 C-7.22789307 6.65855713 -7.23312988 5.40695801 -7.23852539 4.11743164 C-7.03590078 -1.00047378 -4.56937634 0.06245161 0 0 Z M-1.125 5.25 C-1.125 7.89 -1.125 10.53 -1.125 13.25 C0.7621875 13.311875 0.7621875 13.311875 2.6875 13.375 C3.39519531 13.39820313 4.10289062 13.42140625 4.83203125 13.4453125 C7.18859719 13.38254462 7.18859719 13.38254462 9.875 11.25 C9.49595792 7.95924004 9.49595792 7.95924004 7.875 5.25 C6.35571962 5.17820036 4.83332518 5.16607993 3.3125 5.1875 C2.07306641 5.20103516 2.07306641 5.20103516 0.80859375 5.21484375 C-0.14853516 5.23224609 -0.14853516 5.23224609 -1.125 5.25 Z M-1.125 18.25 C-1.125 21.22 -1.125 24.19 -1.125 27.25 C3.32780788 27.42461992 6.96094062 27.55238787 10.875 25.25 C11.95142709 23.36149645 11.95142709 23.36149645 11.875 21.25 C11.215 20.26 10.555 19.27 9.875 18.25 C7.20846095 17.88539547 7.20846095 17.88539547 4.25 18.0625 C3.24710937 18.08957031 2.24421875 18.11664063 1.2109375 18.14453125 C0.05464844 18.19673828 0.05464844 18.19673828 -1.125 18.25 Z " fill="#1B1C1C" transform="translate(325.125,320.75)"/>
<path d="M0 0 C2.51625 -0.04125 5.0325 -0.0825 7.625 -0.125 C8.79603271 -0.15231201 8.79603271 -0.15231201 9.99072266 -0.18017578 C15.14231067 -0.22071887 19.93185398 0.06973039 23.875 3.75 C25.39044021 6.78088042 25.47905389 8.64662274 25 12 C23.20006226 14.69990662 21.916227 16.5418865 19 18 C19.49371094 18.60328125 19.98742187 19.2065625 20.49609375 19.828125 C21.13675781 20.62734375 21.77742188 21.4265625 22.4375 22.25 C23.07558594 23.03890625 23.71367187 23.8278125 24.37109375 24.640625 C25.90505305 26.86247492 26.57130246 28.36743482 27 31 C24.2421875 31.3046875 24.2421875 31.3046875 21 31 C18.8828125 28.8828125 18.8828125 28.8828125 17.125 26.125 C16.52945312 25.22007812 15.93390625 24.31515625 15.3203125 23.3828125 C14 21 14 21 14 19 C11.03 18.67 8.06 18.34 5 18 C5 22.29 5 26.58 5 31 C3.35 31 1.7 31 0 31 C0 20.77 0 10.54 0 0 Z M5 5 C5 7.64 5 10.28 5 13 C9.29 13 13.58 13 18 13 C18.66 11.35 19.32 9.7 20 8 C18.88710102 6.38275389 18.88710102 6.38275389 17 5 C14.02807238 4.63680691 14.02807238 4.63680691 10.8125 4.8125 C9.18248047 4.85310547 9.18248047 4.85310547 7.51953125 4.89453125 C6.68808594 4.92933594 5.85664063 4.96414063 5 5 Z " fill="#1B1C1B" transform="translate(477,321)"/>
<path d="M0 0 C3.11985736 0.22744579 4.58141025 0.5584293 6.76098633 2.85766602 C7.27943115 3.64842529 7.79787598 4.43918457 8.33203125 5.25390625 C8.90244141 6.10791016 9.47285156 6.96191406 10.06054688 7.84179688 C10.63869141 8.73962891 11.21683594 9.63746094 11.8125 10.5625 C12.7087207 11.91504883 12.7087207 11.91504883 13.62304688 13.29492188 C15.09542024 15.52115041 16.54949172 17.75946378 18 20 C18.33 13.4 18.66 6.8 19 0 C21.475 0.495 21.475 0.495 24 1 C24 10.9 24 20.8 24 31 C18 31 18 31 16.2331543 29.37939453 C15.76820557 28.63802246 15.30325684 27.89665039 14.82421875 27.1328125 C14.04788086 25.92818359 14.04788086 25.92818359 13.25585938 24.69921875 C12.73830078 23.84972656 12.22074219 23.00023437 11.6875 22.125 C11.15060547 21.28324219 10.61371094 20.44148438 10.06054688 19.57421875 C6.40973772 13.81947545 6.40973772 13.81947545 5 11 C4.67 17.6 4.34 24.2 4 31 C2.35 31 0.7 31 -1 31 C-1.02465622 26.74585377 -1.04283899 22.49174502 -1.05493164 18.23754883 C-1.05997101 16.78929927 -1.06680253 15.34105483 -1.07543945 13.89282227 C-1.08752247 11.81525412 -1.09323211 9.73775303 -1.09765625 7.66015625 C-1.10289307 6.40855713 -1.10812988 5.15695801 -1.11352539 3.86743164 C-1 1 -1 1 0 0 Z " fill="#1B1C1B" transform="translate(895,321)"/>
<path d="M0 0 C2.495625 -0.061875 4.99125 -0.12375 7.5625 -0.1875 C8.33408447 -0.21481201 9.10566895 -0.24212402 9.90063477 -0.27026367 C14.99262265 -0.3306122 18.48938082 0.60246368 23 3 C24.60646029 6.21292058 24.62441428 9.5258652 24 13 C21.5 16 21.5 16 19 18 C19.49371094 18.68707031 19.98742187 19.37414062 20.49609375 20.08203125 C21.13675781 20.98308594 21.77742187 21.88414062 22.4375 22.8125 C23.07558594 23.70582031 23.71367188 24.59914063 24.37109375 25.51953125 C26 28 26 28 27 31 C23.9375 31.6875 23.9375 31.6875 20 31 C18.03060828 28.31085301 16.48224692 25.48291557 14.84375 22.58203125 C12.83116834 19.76356414 11.87669463 19.07686531 8.5625 18.3125 C7.386875 18.209375 6.21125 18.10625 5 18 C5 22.29 5 26.58 5 31 C3.35 31 1.7 31 0 31 C0 20.77 0 10.54 0 0 Z M5 5 C5 7.64 5 10.28 5 13 C6.95803507 13.05389087 8.91648909 13.09274217 10.875 13.125 C11.96554687 13.14820313 13.05609375 13.17140625 14.1796875 13.1953125 C17.1371051 13.30060534 17.1371051 13.30060534 19 11 C18.71016731 7.69316534 18.71016731 7.69316534 17 5 C14.98035801 4.92755947 12.95832876 4.91622812 10.9375 4.9375 C9.83277344 4.94652344 8.72804688 4.95554687 7.58984375 4.96484375 C6.73519531 4.97644531 5.88054688 4.98804688 5 5 Z " fill="#1B1C1B" transform="translate(691,321)"/>
<path d="M0 0 C1.65 0 3.3 0 5 0 C6.76098633 1.8359375 6.76098633 1.8359375 8.33203125 4.375 C8.90244141 5.27734375 9.47285156 6.1796875 10.06054688 7.109375 C10.63869141 8.06328125 11.21683594 9.0171875 11.8125 10 C12.40998047 10.95390625 13.00746094 11.9078125 13.62304688 12.890625 C15.0979824 15.25052185 16.55108699 17.62403724 18 20 C18.33 13.4 18.66 6.8 19 0 C20.65 0 22.3 0 24 0 C24 10.23 24 20.46 24 31 C19 31 19 31 17.19140625 29.3828125 C16.65386719 28.63773437 16.11632812 27.89265625 15.5625 27.125 C14.9746875 26.31417969 14.386875 25.50335938 13.78125 24.66796875 C11.02062091 20.53307913 8.48637499 16.30567376 6 12 C5.67 18.27 5.34 24.54 5 31 C3.35 31 1.7 31 0 31 C0 20.77 0 10.54 0 0 Z " fill="#1B1C1B" transform="translate(781,321)"/>
<path d="M0 0 C1.65 0 3.3 0 5 0 C7.02734375 2.08984375 7.02734375 2.08984375 8.9375 4.9375 C9.61683594 5.93265625 10.29617188 6.9278125 10.99609375 7.953125 C11.98802734 9.46132813 11.98802734 9.46132813 13 11 C13.60972656 11.90234375 14.21945312 12.8046875 14.84765625 13.734375 C16.24739666 15.8124766 17.62606436 17.90474815 19 20 C19.33 13.4 19.66 6.8 20 0 C21.32 0 22.64 0 24 0 C24 10.23 24 20.46 24 31 C19 31 19 31 17.23901367 29.25585938 C16.72056885 28.45986328 16.20212402 27.66386719 15.66796875 26.84375 C15.09755859 25.98652344 14.52714844 25.12929688 13.93945312 24.24609375 C13.36130859 23.33988281 12.78316406 22.43367188 12.1875 21.5 C11.59001953 20.59378906 10.99253906 19.68757813 10.37695312 18.75390625 C8.90248493 16.5127146 7.44920052 14.25761253 6 12 C5.67 18.27 5.34 24.54 5 31 C3.35 31 1.7 31 0 31 C0 20.77 0 10.54 0 0 Z " fill="#1B1C1B" transform="translate(381,321)"/>
<path d="M0 0 C17.64705882 0 17.64705882 0 23.375 5.125 C26.26688608 10.24141383 26.49945493 15.53041678 25.375 21.25 C23.68391268 25.86205632 21.4382033 28.78089835 17 31 C14.11426648 31.07199934 11.25934885 31.0927068 8.375 31.0625 C5.61125 31.041875 2.8475 31.02125 0 31 C0 20.77 0 10.54 0 0 Z M5 5 C5 12.26 5 19.52 5 27 C12.28723285 26.97312221 12.28723285 26.97312221 18.6875 24.125 C20.67905111 19.38321164 20.84163044 15.05736487 20 10 C18.35288313 6.60276346 18.35288313 6.60276346 15 5 C11.7 5 8.4 5 5 5 Z " fill="#1B1C1B" transform="translate(814,321)"/>
<path d="M0 0 C4.93739841 2.19439929 7.18909857 5.11183372 9.3046875 9.9296875 C11.30692183 15.89139647 9.70924344 20.46219241 7.36328125 25.984375 C5.56892357 28.63735083 3.89598715 29.64964731 1 31 C-3.87607738 31.85696728 -8.87849555 32.17781317 -13.30078125 29.72265625 C-15.72613899 27.66888541 -17.57380212 25.85239576 -19 23 C-20.04465723 9.64208787 -20.04465723 9.64208787 -17.3125 5.3125 C-11.9663585 -0.0336415 -7.43516379 -1.03829735 0 0 Z M-13 8 C-14.44440034 12.33320102 -14.54168843 16.4714847 -14 21 C-12.20353146 23.93423195 -11.0558929 25.47205355 -8 27 C-4.12785818 27.43023798 -2.47503629 27.31669086 0.8125 25.125 C4.02993654 21.99949022 4.22059949 20.0760376 4.375 15.6875 C4.32271014 11.70301293 4.170935 10.27242766 2 6.8125 C-3.02257293 3.77802885 -8.69286574 3.348295 -13 8 Z " fill="#1B1C1B" transform="translate(568,321)"/>
<path d="M0 0 C1.65 0 3.3 0 5 0 C5.33 3.96 5.66 7.92 6 12 C6.79664063 11.13375 7.59328125 10.2675 8.4140625 9.375 C9.483554 8.24921948 10.55391245 7.12426211 11.625 6 C12.14707031 5.42765625 12.66914063 4.8553125 13.20703125 4.265625 C17.23937948 0.08393054 17.23937948 0.08393054 21.3984375 -0.375 C22.25695312 -0.25125 23.11546875 -0.1275 24 0 C22.15290757 4.37829317 19.06291142 6.87879046 15.58203125 10 C15.05996094 10.66 14.53789062 11.32 14 12 C14.58906433 16.39515483 17.35378306 19.28660883 20.0625 22.625 C25 28.74130286 25 28.74130286 25 31 C21.80859375 31.40625 21.80859375 31.40625 18 31 C15.93353981 28.78441382 14.58095959 27.04044892 13.0625 24.5 C12.66482422 23.87996094 12.26714844 23.25992187 11.85742188 22.62109375 C10.88283117 21.09462638 9.93834415 19.54901257 9 18 C8.01 18.66 7.02 19.32 6 20 C5.41651248 22.6556728 5.41651248 22.6556728 5.3125 25.625 C5.24675781 26.62789063 5.18101562 27.63078125 5.11328125 28.6640625 C5.07589844 29.43492187 5.03851563 30.20578125 5 31 C3.02 31 1.04 31 -1 31 C-1.02465622 26.74585377 -1.04283899 22.49174502 -1.05493164 18.23754883 C-1.05997101 16.78929927 -1.06680253 15.34105483 -1.07543945 13.89282227 C-1.08752247 11.81525412 -1.09323211 9.73775303 -1.09765625 7.66015625 C-1.10289307 6.40855713 -1.10812988 5.15695801 -1.11352539 3.86743164 C-1 1 -1 1 0 0 Z " fill="#1B1D1C" transform="translate(415,321)"/>
<path d="M0 0 C7.26 0 14.52 0 22 0 C22 1.65 22 3.3 22 5 C16.39 5 10.78 5 5 5 C5 7.64 5 10.28 5 13 C10.28 13 15.56 13 21 13 C21 14.65 21 16.3 21 18 C15.72 18 10.44 18 5 18 C5 20.97 5 23.94 5 27 C10.94 27 16.88 27 23 27 C23 28.32 23 29.64 23 31 C15.41 31 7.82 31 0 31 C0 20.77 0 10.54 0 0 Z " fill="#1C1C1B" transform="translate(597,321)"/>
<path d="M0 0 C7.26 0 14.52 0 22 0 C22 1.65 22 3.3 22 5 C16.39 5 10.78 5 5 5 C5 7.64 5 10.28 5 13 C10.28 13 15.56 13 21 13 C21 14.65 21 16.3 21 18 C15.72 18 10.44 18 5 18 C5 20.97 5 23.94 5 27 C10.94 27 16.88 27 23 27 C23 28.32 23 29.64 23 31 C15.41 31 7.82 31 0 31 C0 20.77 0 10.54 0 0 Z " fill="#1C1C1B" transform="translate(446,321)"/>
<path d="M0 0 C7.26 0 14.52 0 22 0 C22 1.65 22 3.3 22 5 C16.39 5 10.78 5 5 5 C5 7.64 5 10.28 5 13 C10.28 13 15.56 13 21 13 C21 14.65 21 16.3 21 18 C15.72 18 10.44 18 5 18 C5 20.97 5 23.94 5 27 C10.94 27 16.88 27 23 27 C23 28.32 23 29.64 23 31 C15.41 31 7.82 31 0 31 C0 20.77 0 10.54 0 0 Z " fill="#1B1C1B" transform="translate(276,321)"/>
<path d="M0 0 C1.65 0 3.3 0 5 0 C5 3.96 5 7.92 5 12 C9.62 12 14.24 12 19 12 C19 8.04 19 4.08 19 0 C20.65 0 22.3 0 24 0 C24 10.23 24 20.46 24 31 C22.35 31 20.7 31 19 31 C19 26.38 19 21.76 19 17 C14.38 17 9.76 17 5 17 C5 21.62 5 26.24 5 31 C3.35 31 1.7 31 0 31 C0 20.77 0 10.54 0 0 Z " fill="#1B1C1C" transform="translate(243,321)"/>
<path d="M0 0 C7.26 0 14.52 0 22 0 C22 1.65 22 3.3 22 5 C16.06 5 10.12 5 4 5 C4 7.64 4 10.28 4 13 C9.61 13 15.22 13 21 13 C21 14.65 21 16.3 21 18 C15.39 18 9.78 18 4 18 C4 20.97 4 23.94 4 27 C9.94 27 15.88 27 22 27 C22 28.32 22 29.64 22 31 C14.74 31 7.48 31 0 31 C0 20.77 0 10.54 0 0 Z " fill="#1B1C1B" transform="translate(660,321)"/>
<path d="M0 0 C1.65 0 3.3 0 5 0 C8.09370918 6.60086336 11.0040679 13.27365828 13.8125 20 C14.12646729 20.7417749 14.44043457 21.4835498 14.76391602 22.24780273 C16.03098896 25.30851983 17 27.65383381 17 31 C15.35 31 13.7 31 12 31 C11.83886719 30.43410156 11.67773438 29.86820312 11.51171875 29.28515625 C10.58104708 26.77543027 9.77338718 25.02123407 8 23 C4.32068907 21.9782633 0.80296566 21.8950906 -3 22 C-3.99 24.97 -4.98 27.94 -6 31 C-7.65 31 -9.3 31 -11 31 C-10.41146688 26.68033587 -9.35740427 22.97894213 -7.71484375 18.9453125 C-7.26689453 17.83671875 -6.81894531 16.728125 -6.35742188 15.5859375 C-5.88884766 14.44382812 -5.42027344 13.30171875 -4.9375 12.125 C-4.46505859 10.9596875 -3.99261719 9.794375 -3.50585938 8.59375 C-2.34267209 5.72690456 -1.17389942 2.86247193 0 0 Z M2 7 C0.515 12.445 0.515 12.445 -1 18 C1.64 18 4.28 18 7 18 C5.68 14.37 4.36 10.74 3 7 C2.67 7 2.34 7 2 7 Z " fill="#1B1C1B" transform="translate(358,321)"/>
<path d="M0 0 C1.65 0 3.3 0 5 0 C8.09442271 5.98673222 10.75577706 12.053848 13.25 18.3125 C13.61351562 19.20517578 13.97703125 20.09785156 14.3515625 21.01757812 C14.69445312 21.87416016 15.03734375 22.73074219 15.390625 23.61328125 C15.70032227 24.38454346 16.01001953 25.15580566 16.32910156 25.95043945 C17 28 17 28 17 31 C15.35 31 13.7 31 12 31 C9 25.375 9 25.375 9 22 C5.04 22 1.08 22 -3 22 C-3.99 24.97 -4.98 27.94 -6 31 C-7.65 31 -9.3 31 -11 31 C-10.3339303 27.0577597 -9.16360451 23.54698373 -7.71484375 19.82421875 C-7.26689453 18.66728516 -6.81894531 17.51035156 -6.35742188 16.31835938 C-5.88884766 15.12017578 -5.42027344 13.92199219 -4.9375 12.6875 C-4.46505859 11.46998047 -3.99261719 10.25246094 -3.50585938 8.99804688 C-2.34085239 5.9972713 -1.17211211 2.99800584 0 0 Z M2 8 C1.01 11.3 0.02 14.6 -1 18 C1.64 18 4.28 18 7 18 C6.55090939 16.51800098 6.09043436 15.03944764 5.625 13.5625 C5.24214844 12.32693359 5.24214844 12.32693359 4.8515625 11.06640625 C4.19117773 8.82201984 4.19117773 8.82201984 2 8 Z " fill="#1B1C1B" transform="translate(871,321)"/>
<path d="M0 0 C1.65 0 3.3 0 5 0 C8.23283753 7.59186846 11.24225135 15.22327034 14 23 C14.23710693 22.37432129 14.47421387 21.74864258 14.71850586 21.10400391 C15.7904212 18.27725731 16.86394047 15.45112254 17.9375 12.625 C18.31068359 11.64015625 18.68386719 10.6553125 19.06835938 9.640625 C19.42607422 8.69960938 19.78378906 7.75859375 20.15234375 6.7890625 C20.48226318 5.91975098 20.81218262 5.05043945 21.15209961 4.15478516 C22 2 22 2 23 0 C24.65 0 26.3 0 28 0 C27.3339303 3.9422403 26.16360451 7.45301627 24.71484375 11.17578125 C24.04291992 12.91118164 24.04291992 12.91118164 23.35742188 14.68164062 C22.88884766 15.87982422 22.42027344 17.07800781 21.9375 18.3125 C21.46505859 19.53001953 20.99261719 20.74753906 20.50585938 22.00195312 C19.34085239 25.0027287 18.17211211 28.00199416 17 31 C15.02 31 13.04 31 11 31 C9.34754789 26.77338974 7.70420132 22.54329645 6.0625 18.3125 C5.59392578 17.11431641 5.12535156 15.91613281 4.64257812 14.68164062 C4.19462891 13.52470703 3.74667969 12.36777344 3.28515625 11.17578125 C2.66459351 9.58117065 2.66459351 9.58117065 2.03149414 7.9543457 C1.10376419 5.29719537 0.4680571 2.77027098 0 0 Z " fill="#1B1C1B" transform="translate(625,321)"/>
<path d="M0 0 C5.28 0 10.56 0 16 0 C16 5.61 16 11.22 16 17 C10.72 17 5.44 17 0 17 C0 11.39 0 5.78 0 0 Z " fill="#1C1C1B" transform="translate(863,214)"/>
<path d="M0 0 C2.7265625 -0.375 2.7265625 -0.375 6 0 C8.3359375 2.625 8.3359375 2.625 10.375 6 C11.06335938 7.11375 11.75171875 8.2275 12.4609375 9.375 C12.96882812 10.24125 13.47671875 11.1075 14 12 C16.33052717 9.14719825 18.47623611 6.30244853 20.4375 3.1875 C21.6953125 1.3828125 21.6953125 1.3828125 23 0 C25.8125 -0.4375 25.8125 -0.4375 28 0 C27.44059588 4.17555217 25.05390334 6.63412899 22.5 9.875 C17.38594347 16.72182854 16.67864822 22.42633459 17 31 C15.35 31 13.7 31 12 31 C12.05542969 30.2471875 12.11085938 29.494375 12.16796875 28.71875 C12.2333553 17.94304725 7.46939318 11.71215446 0.99389648 3.48950195 C0 2 0 2 0 0 Z " fill="#1B1C1B" transform="translate(720,321)"/>
<path d="M0 0 C8.25 0 16.5 0 25 0 C25 1.65 25 3.3 25 5 C21.7 5 18.4 5 15 5 C15 13.58 15 22.16 15 31 C13.35 31 11.7 31 10 31 C10 22.42 10 13.84 10 5 C6.7 5 3.4 5 0 5 C0 3.35 0 1.7 0 0 Z " fill="#1B1C1B" transform="translate(519,321)"/>
<path d="M0 0 C7.92 0 15.84 0 24 0 C24 1.65 24 3.3 24 5 C20.7 5 17.4 5 14 5 C14 13.58 14 22.16 14 31 C12.35 31 10.7 31 9 31 C9 22.42 9 13.84 9 5 C5.7 5 2.4 5 -1 5 C-0.67 3.35 -0.34 1.7 0 0 Z " fill="#1B1C1B" transform="translate(212,321)"/>
<path d="M0 0 C1.65 0 3.3 0 5 0 C6 1 6 1 6.11352539 3.86743164 C6.10828857 5.11903076 6.10305176 6.37062988 6.09765625 7.66015625 C6.0962413 8.32462265 6.09482635 8.98908905 6.09336853 9.6736908 C6.08775518 11.80333899 6.07520054 13.93288339 6.0625 16.0625 C6.05748671 17.50325369 6.05292351 18.94400903 6.04882812 20.38476562 C6.03778145 23.92321102 6.02050792 27.46159539 6 31 C4.02 31 2.04 31 0 31 C0 20.77 0 10.54 0 0 Z " fill="#1B1D1E" transform="translate(848,321)"/>
<path d="M0 0 C1.65 0 3.3 0 5 0 C5 10.23 5 20.46 5 31 C3.35 31 1.7 31 0 31 C0 20.77 0 10.54 0 0 Z " fill="#1B1C1B" transform="translate(766,321)"/>
</svg>
